<mxfile host="65bd71144e">
    <diagram id="OBr6cDBVOU-OUtQsWPw7" name="Page-1">
        <mxGraphModel dx="1098" dy="507" grid="0" gridSize="10" guides="1" tooltips="1" connect="1" arrows="1" fold="1" page="0" pageScale="1" pageWidth="827" pageHeight="1169" math="0" shadow="0">
            <root>
                <mxCell id="0"/>
                <mxCell id="1" parent="0"/>
                <mxCell id="21" value="Schemas" style="text;html=1;strokeColor=none;fillColor=none;align=center;verticalAlign=middle;whiteSpace=wrap;rounded=0;shadow=0;glass=0;dashed=1;sketch=1;fontSize=32;" parent="1" vertex="1">
                    <mxGeometry width="160" height="80" as="geometry"/>
                </mxCell>
                <mxCell id="46" value="User" style="swimlane;fontStyle=0;childLayout=stackLayout;horizontal=1;startSize=30;horizontalStack=0;resizeParent=1;resizeParentMax=0;resizeLast=0;collapsible=1;marginBottom=0;" parent="1" vertex="1">
                    <mxGeometry y="80" width="200" height="316" as="geometry">
                        <mxRectangle y="80" width="60" height="30" as="alternateBounds"/>
                    </mxGeometry>
                </mxCell>
                <mxCell id="54" value="" style="shape=table;html=1;whiteSpace=wrap;startSize=0;container=1;collapsible=0;childLayout=tableLayout;rounded=0;shadow=0;glass=0;dashed=1;sketch=1;fontSize=20;align=left;" parent="46" vertex="1">
                    <mxGeometry y="30" width="200" height="286" as="geometry"/>
                </mxCell>
                <mxCell id="55" value="" style="shape=partialRectangle;html=1;whiteSpace=wrap;collapsible=0;dropTarget=0;pointerEvents=0;fillColor=none;top=0;left=0;bottom=0;right=0;points=[[0,0.5],[1,0.5]];portConstraint=eastwest;rounded=0;shadow=0;glass=0;dashed=1;sketch=1;fontSize=20;" parent="54" vertex="1">
                    <mxGeometry width="200" height="30" as="geometry"/>
                </mxCell>
                <mxCell id="56" value="_id" style="shape=partialRectangle;html=1;whiteSpace=wrap;connectable=0;fillColor=#a20025;top=0;left=0;bottom=0;right=0;overflow=hidden;pointerEvents=1;rounded=0;shadow=0;glass=0;dashed=1;sketch=1;fontSize=12;align=left;fontColor=#ffffff;strokeColor=#6F0000;" parent="55" vertex="1">
                    <mxGeometry width="130" height="30" as="geometry">
                        <mxRectangle width="130" height="30" as="alternateBounds"/>
                    </mxGeometry>
                </mxCell>
                <mxCell id="57" value="String" style="shape=partialRectangle;html=1;whiteSpace=wrap;connectable=0;fillColor=#a20025;top=0;left=0;bottom=0;right=0;overflow=hidden;pointerEvents=1;rounded=0;shadow=0;glass=0;dashed=1;sketch=1;fontSize=12;align=left;fontColor=#ffffff;strokeColor=#6F0000;" parent="55" vertex="1">
                    <mxGeometry x="130" width="70" height="30" as="geometry">
                        <mxRectangle width="70" height="30" as="alternateBounds"/>
                    </mxGeometry>
                </mxCell>
                <mxCell id="59" value="" style="shape=partialRectangle;html=1;whiteSpace=wrap;collapsible=0;dropTarget=0;pointerEvents=0;fillColor=none;top=0;left=0;bottom=0;right=0;points=[[0,0.5],[1,0.5]];portConstraint=eastwest;rounded=0;shadow=0;glass=0;dashed=1;sketch=1;fontSize=20;" parent="54" vertex="1">
                    <mxGeometry y="30" width="200" height="32" as="geometry"/>
                </mxCell>
                <mxCell id="60" value="Email" style="shape=partialRectangle;html=1;whiteSpace=wrap;connectable=0;fillColor=none;top=0;left=0;bottom=0;right=0;overflow=hidden;pointerEvents=1;rounded=0;shadow=0;glass=0;dashed=1;sketch=1;fontSize=12;align=left;" parent="59" vertex="1">
                    <mxGeometry width="130" height="32" as="geometry">
                        <mxRectangle width="130" height="32" as="alternateBounds"/>
                    </mxGeometry>
                </mxCell>
                <mxCell id="61" value="String" style="shape=partialRectangle;html=1;whiteSpace=wrap;connectable=0;fillColor=none;top=0;left=0;bottom=0;right=0;overflow=hidden;pointerEvents=1;rounded=0;shadow=0;glass=0;dashed=1;sketch=1;fontSize=12;align=left;" parent="59" vertex="1">
                    <mxGeometry x="130" width="70" height="32" as="geometry">
                        <mxRectangle width="70" height="32" as="alternateBounds"/>
                    </mxGeometry>
                </mxCell>
                <mxCell id="63" value="" style="shape=partialRectangle;html=1;whiteSpace=wrap;collapsible=0;dropTarget=0;pointerEvents=0;fillColor=none;top=0;left=0;bottom=0;right=0;points=[[0,0.5],[1,0.5]];portConstraint=eastwest;rounded=0;shadow=0;glass=0;dashed=1;sketch=1;fontSize=20;" parent="54" vertex="1">
                    <mxGeometry y="62" width="200" height="28" as="geometry"/>
                </mxCell>
                <mxCell id="64" value="Username" style="shape=partialRectangle;html=1;whiteSpace=wrap;connectable=0;fillColor=none;top=0;left=0;bottom=0;right=0;overflow=hidden;pointerEvents=1;rounded=0;shadow=0;glass=0;dashed=1;sketch=1;fontSize=12;align=left;" parent="63" vertex="1">
                    <mxGeometry width="130" height="28" as="geometry">
                        <mxRectangle width="130" height="28" as="alternateBounds"/>
                    </mxGeometry>
                </mxCell>
                <mxCell id="65" value="String" style="shape=partialRectangle;html=1;whiteSpace=wrap;connectable=0;fillColor=none;top=0;left=0;bottom=0;right=0;overflow=hidden;pointerEvents=1;rounded=0;shadow=0;glass=0;dashed=1;sketch=1;fontSize=12;align=left;" parent="63" vertex="1">
                    <mxGeometry x="130" width="70" height="28" as="geometry">
                        <mxRectangle width="70" height="28" as="alternateBounds"/>
                    </mxGeometry>
                </mxCell>
                <mxCell id="205" style="shape=partialRectangle;html=1;whiteSpace=wrap;collapsible=0;dropTarget=0;pointerEvents=0;fillColor=none;top=0;left=0;bottom=0;right=0;points=[[0,0.5],[1,0.5]];portConstraint=eastwest;rounded=0;shadow=0;glass=0;dashed=1;sketch=1;fontSize=20;" parent="54" vertex="1">
                    <mxGeometry y="90" width="200" height="28" as="geometry"/>
                </mxCell>
                <mxCell id="206" value="Admin" style="shape=partialRectangle;html=1;whiteSpace=wrap;connectable=0;fillColor=none;top=0;left=0;bottom=0;right=0;overflow=hidden;pointerEvents=1;rounded=0;shadow=0;glass=0;dashed=1;sketch=1;fontSize=12;align=left;" parent="205" vertex="1">
                    <mxGeometry width="130" height="28" as="geometry">
                        <mxRectangle width="130" height="28" as="alternateBounds"/>
                    </mxGeometry>
                </mxCell>
                <mxCell id="207" value="Boolean" style="shape=partialRectangle;html=1;whiteSpace=wrap;connectable=0;fillColor=none;top=0;left=0;bottom=0;right=0;overflow=hidden;pointerEvents=1;rounded=0;shadow=0;glass=0;dashed=1;sketch=1;fontSize=12;align=left;" parent="205" vertex="1">
                    <mxGeometry x="130" width="70" height="28" as="geometry">
                        <mxRectangle width="70" height="28" as="alternateBounds"/>
                    </mxGeometry>
                </mxCell>
                <mxCell id="99" style="shape=partialRectangle;html=1;whiteSpace=wrap;collapsible=0;dropTarget=0;pointerEvents=0;fillColor=none;top=0;left=0;bottom=0;right=0;points=[[0,0.5],[1,0.5]];portConstraint=eastwest;rounded=0;shadow=0;glass=0;dashed=1;sketch=1;fontSize=20;" parent="54" vertex="1">
                    <mxGeometry y="118" width="200" height="28" as="geometry"/>
                </mxCell>
                <mxCell id="100" value="Password" style="shape=partialRectangle;html=1;whiteSpace=wrap;connectable=0;fillColor=none;top=0;left=0;bottom=0;right=0;overflow=hidden;pointerEvents=1;rounded=0;shadow=0;glass=0;dashed=1;sketch=1;fontSize=12;align=left;" parent="99" vertex="1">
                    <mxGeometry width="130" height="28" as="geometry">
                        <mxRectangle width="130" height="28" as="alternateBounds"/>
                    </mxGeometry>
                </mxCell>
                <mxCell id="101" value="String" style="shape=partialRectangle;html=1;whiteSpace=wrap;connectable=0;fillColor=none;top=0;left=0;bottom=0;right=0;overflow=hidden;pointerEvents=1;rounded=0;shadow=0;glass=0;dashed=1;sketch=1;fontSize=12;align=left;" parent="99" vertex="1">
                    <mxGeometry x="130" width="70" height="28" as="geometry">
                        <mxRectangle width="70" height="28" as="alternateBounds"/>
                    </mxGeometry>
                </mxCell>
                <mxCell id="102" style="shape=partialRectangle;html=1;whiteSpace=wrap;collapsible=0;dropTarget=0;pointerEvents=0;fillColor=none;top=0;left=0;bottom=0;right=0;points=[[0,0.5],[1,0.5]];portConstraint=eastwest;rounded=0;shadow=0;glass=0;dashed=1;sketch=1;fontSize=20;" parent="54" vertex="1">
                    <mxGeometry y="146" width="200" height="28" as="geometry"/>
                </mxCell>
                <mxCell id="103" value="Password Confirmation" style="shape=partialRectangle;html=1;whiteSpace=wrap;connectable=0;fillColor=#60a917;top=0;left=0;bottom=0;right=0;overflow=hidden;pointerEvents=1;rounded=0;shadow=0;glass=0;dashed=1;sketch=1;fontSize=12;align=left;strokeColor=#2D7600;fontColor=#ffffff;" parent="102" vertex="1">
                    <mxGeometry width="130" height="28" as="geometry">
                        <mxRectangle width="130" height="28" as="alternateBounds"/>
                    </mxGeometry>
                </mxCell>
                <mxCell id="104" value="String" style="shape=partialRectangle;html=1;whiteSpace=wrap;connectable=0;fillColor=#60a917;top=0;left=0;bottom=0;right=0;overflow=hidden;pointerEvents=1;rounded=0;shadow=0;glass=0;dashed=1;sketch=1;fontSize=12;align=left;strokeColor=#2D7600;fontColor=#ffffff;" parent="102" vertex="1">
                    <mxGeometry x="130" width="70" height="28" as="geometry">
                        <mxRectangle width="70" height="28" as="alternateBounds"/>
                    </mxGeometry>
                </mxCell>
                <mxCell id="105" style="shape=partialRectangle;html=1;whiteSpace=wrap;collapsible=0;dropTarget=0;pointerEvents=0;fillColor=none;top=0;left=0;bottom=0;right=0;points=[[0,0.5],[1,0.5]];portConstraint=eastwest;rounded=0;shadow=0;glass=0;dashed=1;sketch=1;fontSize=20;" parent="54" vertex="1">
                    <mxGeometry y="174" width="200" height="28" as="geometry"/>
                </mxCell>
                <mxCell id="106" value="CreatedAt" style="shape=partialRectangle;html=1;whiteSpace=wrap;connectable=0;fillColor=#1ba1e2;top=0;left=0;bottom=0;right=0;overflow=hidden;pointerEvents=1;rounded=0;shadow=0;glass=0;dashed=1;sketch=1;fontSize=12;align=left;fontColor=#ffffff;strokeColor=#006EAF;" parent="105" vertex="1">
                    <mxGeometry width="130" height="28" as="geometry">
                        <mxRectangle width="130" height="28" as="alternateBounds"/>
                    </mxGeometry>
                </mxCell>
                <mxCell id="107" value="Date" style="shape=partialRectangle;html=1;whiteSpace=wrap;connectable=0;fillColor=#1ba1e2;top=0;left=0;bottom=0;right=0;overflow=hidden;pointerEvents=1;rounded=0;shadow=0;glass=0;dashed=1;sketch=1;fontSize=12;align=left;fontColor=#ffffff;strokeColor=#006EAF;" parent="105" vertex="1">
                    <mxGeometry x="130" width="70" height="28" as="geometry">
                        <mxRectangle width="70" height="28" as="alternateBounds"/>
                    </mxGeometry>
                </mxCell>
                <mxCell id="108" style="shape=partialRectangle;html=1;whiteSpace=wrap;collapsible=0;dropTarget=0;pointerEvents=0;fillColor=none;top=0;left=0;bottom=0;right=0;points=[[0,0.5],[1,0.5]];portConstraint=eastwest;rounded=0;shadow=0;glass=0;dashed=1;sketch=1;fontSize=20;" parent="54" vertex="1">
                    <mxGeometry y="202" width="200" height="28" as="geometry"/>
                </mxCell>
                <mxCell id="109" value="UpdatedAt" style="shape=partialRectangle;html=1;whiteSpace=wrap;connectable=0;fillColor=#1ba1e2;top=0;left=0;bottom=0;right=0;overflow=hidden;pointerEvents=1;rounded=0;shadow=0;glass=0;dashed=1;sketch=1;fontSize=12;align=left;fontColor=#ffffff;strokeColor=#006EAF;" parent="108" vertex="1">
                    <mxGeometry width="130" height="28" as="geometry">
                        <mxRectangle width="130" height="28" as="alternateBounds"/>
                    </mxGeometry>
                </mxCell>
                <mxCell id="110" value="Date" style="shape=partialRectangle;html=1;whiteSpace=wrap;connectable=0;fillColor=#1ba1e2;top=0;left=0;bottom=0;right=0;overflow=hidden;pointerEvents=1;rounded=0;shadow=0;glass=0;dashed=1;sketch=1;fontSize=12;align=left;fontColor=#ffffff;strokeColor=#006EAF;" parent="108" vertex="1">
                    <mxGeometry x="130" width="70" height="28" as="geometry">
                        <mxRectangle width="70" height="28" as="alternateBounds"/>
                    </mxGeometry>
                </mxCell>
                <mxCell id="208" style="shape=partialRectangle;html=1;whiteSpace=wrap;collapsible=0;dropTarget=0;pointerEvents=0;fillColor=none;top=0;left=0;bottom=0;right=0;points=[[0,0.5],[1,0.5]];portConstraint=eastwest;rounded=0;shadow=0;glass=0;dashed=1;sketch=1;fontSize=20;" parent="54" vertex="1">
                    <mxGeometry y="230" width="200" height="28" as="geometry"/>
                </mxCell>
                <mxCell id="209" value="Hidden" style="shape=partialRectangle;html=1;whiteSpace=wrap;connectable=0;top=0;left=0;bottom=0;right=0;overflow=hidden;pointerEvents=1;rounded=0;shadow=0;glass=0;dashed=1;sketch=0;fontSize=12;align=left;" parent="208" vertex="1">
                    <mxGeometry width="130" height="28" as="geometry">
                        <mxRectangle width="130" height="28" as="alternateBounds"/>
                    </mxGeometry>
                </mxCell>
                <mxCell id="210" value="Boolean" style="shape=partialRectangle;html=1;whiteSpace=wrap;connectable=0;top=0;left=0;bottom=0;right=0;overflow=hidden;pointerEvents=1;rounded=0;shadow=0;glass=0;dashed=1;sketch=0;fontSize=12;align=left;" parent="208" vertex="1">
                    <mxGeometry x="130" width="70" height="28" as="geometry">
                        <mxRectangle width="70" height="28" as="alternateBounds"/>
                    </mxGeometry>
                </mxCell>
                <mxCell id="220" style="shape=partialRectangle;html=1;whiteSpace=wrap;collapsible=0;dropTarget=0;pointerEvents=0;fillColor=none;top=0;left=0;bottom=0;right=0;points=[[0,0.5],[1,0.5]];portConstraint=eastwest;rounded=0;shadow=0;glass=0;dashed=1;sketch=1;fontSize=20;" parent="54" vertex="1">
                    <mxGeometry y="258" width="200" height="28" as="geometry"/>
                </mxCell>
                <mxCell id="221" value="Categories" style="shape=partialRectangle;html=1;whiteSpace=wrap;connectable=0;top=0;left=0;bottom=0;right=0;overflow=hidden;pointerEvents=1;rounded=0;shadow=0;glass=0;dashed=1;sketch=0;fontSize=12;align=left;" parent="220" vertex="1">
                    <mxGeometry width="130" height="28" as="geometry">
                        <mxRectangle width="130" height="28" as="alternateBounds"/>
                    </mxGeometry>
                </mxCell>
                <mxCell id="222" value="Array" style="shape=partialRectangle;html=1;whiteSpace=wrap;connectable=0;top=0;left=0;bottom=0;right=0;overflow=hidden;pointerEvents=1;rounded=0;shadow=0;glass=0;dashed=1;sketch=0;fontSize=12;align=left;" parent="220" vertex="1">
                    <mxGeometry x="130" width="70" height="28" as="geometry">
                        <mxRectangle width="70" height="28" as="alternateBounds"/>
                    </mxGeometry>
                </mxCell>
                <mxCell id="112" value="Question" style="swimlane;fontStyle=0;childLayout=stackLayout;horizontal=1;startSize=30;horizontalStack=0;resizeParent=1;resizeParentMax=0;resizeLast=0;collapsible=1;marginBottom=0;" parent="1" vertex="1">
                    <mxGeometry x="280" y="80" width="200" height="260" as="geometry">
                        <mxRectangle y="80" width="60" height="30" as="alternateBounds"/>
                    </mxGeometry>
                </mxCell>
                <mxCell id="113" value="" style="shape=table;html=1;whiteSpace=wrap;startSize=0;container=1;collapsible=0;childLayout=tableLayout;rounded=0;shadow=0;glass=0;dashed=1;sketch=1;fontSize=20;align=left;" parent="112" vertex="1">
                    <mxGeometry y="30" width="200" height="230" as="geometry"/>
                </mxCell>
                <mxCell id="114" value="" style="shape=partialRectangle;html=1;whiteSpace=wrap;collapsible=0;dropTarget=0;pointerEvents=0;fillColor=none;top=0;left=0;bottom=0;right=0;points=[[0,0.5],[1,0.5]];portConstraint=eastwest;rounded=0;shadow=0;glass=0;dashed=1;sketch=1;fontSize=20;" parent="113" vertex="1">
                    <mxGeometry width="200" height="30" as="geometry"/>
                </mxCell>
                <mxCell id="115" value="_id" style="shape=partialRectangle;html=1;whiteSpace=wrap;connectable=0;fillColor=#a20025;top=0;left=0;bottom=0;right=0;overflow=hidden;pointerEvents=1;rounded=0;shadow=0;glass=0;dashed=1;sketch=1;fontSize=12;align=left;fontColor=#ffffff;strokeColor=#6F0000;" parent="114" vertex="1">
                    <mxGeometry width="130" height="30" as="geometry">
                        <mxRectangle width="130" height="30" as="alternateBounds"/>
                    </mxGeometry>
                </mxCell>
                <mxCell id="116" value="String" style="shape=partialRectangle;html=1;whiteSpace=wrap;connectable=0;fillColor=#a20025;top=0;left=0;bottom=0;right=0;overflow=hidden;pointerEvents=1;rounded=0;shadow=0;glass=0;dashed=1;sketch=1;fontSize=12;align=left;fontColor=#ffffff;strokeColor=#6F0000;" parent="114" vertex="1">
                    <mxGeometry x="130" width="70" height="30" as="geometry">
                        <mxRectangle width="70" height="30" as="alternateBounds"/>
                    </mxGeometry>
                </mxCell>
                <mxCell id="117" value="" style="shape=partialRectangle;html=1;whiteSpace=wrap;collapsible=0;dropTarget=0;pointerEvents=0;fillColor=none;top=0;left=0;bottom=0;right=0;points=[[0,0.5],[1,0.5]];portConstraint=eastwest;rounded=0;shadow=0;glass=0;dashed=1;sketch=1;fontSize=20;" parent="113" vertex="1">
                    <mxGeometry y="30" width="200" height="32" as="geometry"/>
                </mxCell>
                <mxCell id="118" value="Question Text" style="shape=partialRectangle;html=1;whiteSpace=wrap;connectable=0;fillColor=none;top=0;left=0;bottom=0;right=0;overflow=hidden;pointerEvents=1;rounded=0;shadow=0;glass=0;dashed=1;sketch=1;fontSize=12;align=left;" parent="117" vertex="1">
                    <mxGeometry width="130" height="32" as="geometry">
                        <mxRectangle width="130" height="32" as="alternateBounds"/>
                    </mxGeometry>
                </mxCell>
                <mxCell id="119" value="String" style="shape=partialRectangle;html=1;whiteSpace=wrap;connectable=0;fillColor=none;top=0;left=0;bottom=0;right=0;overflow=hidden;pointerEvents=1;rounded=0;shadow=0;glass=0;dashed=1;sketch=1;fontSize=12;align=left;" parent="117" vertex="1">
                    <mxGeometry x="130" width="70" height="32" as="geometry">
                        <mxRectangle width="70" height="32" as="alternateBounds"/>
                    </mxGeometry>
                </mxCell>
                <mxCell id="120" value="" style="shape=partialRectangle;html=1;whiteSpace=wrap;collapsible=0;dropTarget=0;pointerEvents=0;fillColor=none;top=0;left=0;bottom=0;right=0;points=[[0,0.5],[1,0.5]];portConstraint=eastwest;rounded=0;shadow=0;glass=0;dashed=1;sketch=1;fontSize=20;" parent="113" vertex="1">
                    <mxGeometry y="62" width="200" height="28" as="geometry"/>
                </mxCell>
                <mxCell id="121" value="Owner" style="shape=partialRectangle;html=1;whiteSpace=wrap;connectable=0;fillColor=none;top=0;left=0;bottom=0;right=0;overflow=hidden;pointerEvents=1;rounded=0;shadow=0;glass=0;dashed=1;sketch=1;fontSize=12;align=left;" parent="120" vertex="1">
                    <mxGeometry width="130" height="28" as="geometry">
                        <mxRectangle width="130" height="28" as="alternateBounds"/>
                    </mxGeometry>
                </mxCell>
                <mxCell id="122" value="String" style="shape=partialRectangle;html=1;whiteSpace=wrap;connectable=0;fillColor=none;top=0;left=0;bottom=0;right=0;overflow=hidden;pointerEvents=1;rounded=0;shadow=0;glass=0;dashed=1;sketch=1;fontSize=12;align=left;" parent="120" vertex="1">
                    <mxGeometry x="130" width="70" height="28" as="geometry">
                        <mxRectangle width="70" height="28" as="alternateBounds"/>
                    </mxGeometry>
                </mxCell>
                <mxCell id="123" style="shape=partialRectangle;html=1;whiteSpace=wrap;collapsible=0;dropTarget=0;pointerEvents=0;fillColor=none;top=0;left=0;bottom=0;right=0;points=[[0,0.5],[1,0.5]];portConstraint=eastwest;rounded=0;shadow=0;glass=0;dashed=1;sketch=1;fontSize=20;" parent="113" vertex="1">
                    <mxGeometry y="90" width="200" height="28" as="geometry"/>
                </mxCell>
                <mxCell id="124" value="Answers" style="shape=partialRectangle;html=1;whiteSpace=wrap;connectable=0;fillColor=none;top=0;left=0;bottom=0;right=0;overflow=hidden;pointerEvents=1;rounded=0;shadow=0;glass=0;dashed=1;sketch=1;fontSize=12;align=left;" parent="123" vertex="1">
                    <mxGeometry width="130" height="28" as="geometry">
                        <mxRectangle width="130" height="28" as="alternateBounds"/>
                    </mxGeometry>
                </mxCell>
                <mxCell id="125" value="Array" style="shape=partialRectangle;html=1;whiteSpace=wrap;connectable=0;fillColor=none;top=0;left=0;bottom=0;right=0;overflow=hidden;pointerEvents=1;rounded=0;shadow=0;glass=0;dashed=1;sketch=1;fontSize=12;align=left;" parent="123" vertex="1">
                    <mxGeometry x="130" width="70" height="28" as="geometry">
                        <mxRectangle width="70" height="28" as="alternateBounds"/>
                    </mxGeometry>
                </mxCell>
                <mxCell id="199" style="shape=partialRectangle;html=1;whiteSpace=wrap;collapsible=0;dropTarget=0;pointerEvents=0;fillColor=none;top=0;left=0;bottom=0;right=0;points=[[0,0.5],[1,0.5]];portConstraint=eastwest;rounded=0;shadow=0;glass=0;dashed=1;sketch=1;fontSize=20;" parent="113" vertex="1">
                    <mxGeometry y="118" width="200" height="28" as="geometry"/>
                </mxCell>
                <mxCell id="200" value="Categories" style="shape=partialRectangle;html=1;whiteSpace=wrap;connectable=0;fillColor=none;top=0;left=0;bottom=0;right=0;overflow=hidden;pointerEvents=1;rounded=0;shadow=0;glass=0;dashed=1;sketch=1;fontSize=12;align=left;" parent="199" vertex="1">
                    <mxGeometry width="130" height="28" as="geometry">
                        <mxRectangle width="130" height="28" as="alternateBounds"/>
                    </mxGeometry>
                </mxCell>
                <mxCell id="201" value="Array" style="shape=partialRectangle;html=1;whiteSpace=wrap;connectable=0;fillColor=none;top=0;left=0;bottom=0;right=0;overflow=hidden;pointerEvents=1;rounded=0;shadow=0;glass=0;dashed=1;sketch=1;fontSize=12;align=left;" parent="199" vertex="1">
                    <mxGeometry x="130" width="70" height="28" as="geometry">
                        <mxRectangle width="70" height="28" as="alternateBounds"/>
                    </mxGeometry>
                </mxCell>
                <mxCell id="176" style="shape=partialRectangle;html=1;whiteSpace=wrap;collapsible=0;dropTarget=0;pointerEvents=0;fillColor=none;top=0;left=0;bottom=0;right=0;points=[[0,0.5],[1,0.5]];portConstraint=eastwest;rounded=0;shadow=0;glass=0;dashed=1;sketch=1;fontSize=20;" parent="113" vertex="1">
                    <mxGeometry y="146" width="200" height="28" as="geometry"/>
                </mxCell>
                <mxCell id="177" value="CreatedAt" style="shape=partialRectangle;html=1;whiteSpace=wrap;connectable=0;fillColor=#1ba1e2;top=0;left=0;bottom=0;right=0;overflow=hidden;pointerEvents=1;rounded=0;shadow=0;glass=0;dashed=1;sketch=1;fontSize=12;align=left;fontColor=#ffffff;strokeColor=#006EAF;" parent="176" vertex="1">
                    <mxGeometry width="130" height="28" as="geometry">
                        <mxRectangle width="130" height="28" as="alternateBounds"/>
                    </mxGeometry>
                </mxCell>
                <mxCell id="178" value="Date" style="shape=partialRectangle;html=1;whiteSpace=wrap;connectable=0;fillColor=#1ba1e2;top=0;left=0;bottom=0;right=0;overflow=hidden;pointerEvents=1;rounded=0;shadow=0;glass=0;dashed=1;sketch=1;fontSize=12;align=left;fontColor=#ffffff;strokeColor=#006EAF;" parent="176" vertex="1">
                    <mxGeometry x="130" width="70" height="28" as="geometry">
                        <mxRectangle width="70" height="28" as="alternateBounds"/>
                    </mxGeometry>
                </mxCell>
                <mxCell id="180" style="shape=partialRectangle;html=1;whiteSpace=wrap;collapsible=0;dropTarget=0;pointerEvents=0;fillColor=none;top=0;left=0;bottom=0;right=0;points=[[0,0.5],[1,0.5]];portConstraint=eastwest;rounded=0;shadow=0;glass=0;dashed=1;sketch=1;fontSize=20;" parent="113" vertex="1">
                    <mxGeometry y="174" width="200" height="28" as="geometry"/>
                </mxCell>
                <mxCell id="181" value="UpdatedAt" style="shape=partialRectangle;html=1;whiteSpace=wrap;connectable=0;fillColor=#1ba1e2;top=0;left=0;bottom=0;right=0;overflow=hidden;pointerEvents=1;rounded=0;shadow=0;glass=0;dashed=1;sketch=1;fontSize=12;align=left;fontColor=#ffffff;strokeColor=#006EAF;" parent="180" vertex="1">
                    <mxGeometry width="130" height="28" as="geometry">
                        <mxRectangle width="130" height="28" as="alternateBounds"/>
                    </mxGeometry>
                </mxCell>
                <mxCell id="182" value="Date" style="shape=partialRectangle;html=1;whiteSpace=wrap;connectable=0;fillColor=#1ba1e2;top=0;left=0;bottom=0;right=0;overflow=hidden;pointerEvents=1;rounded=0;shadow=0;glass=0;dashed=1;sketch=1;fontSize=12;align=left;fontColor=#ffffff;strokeColor=#006EAF;" parent="180" vertex="1">
                    <mxGeometry x="130" width="70" height="28" as="geometry">
                        <mxRectangle width="70" height="28" as="alternateBounds"/>
                    </mxGeometry>
                </mxCell>
                <mxCell id="211" style="shape=partialRectangle;html=1;whiteSpace=wrap;collapsible=0;dropTarget=0;pointerEvents=0;fillColor=none;top=0;left=0;bottom=0;right=0;points=[[0,0.5],[1,0.5]];portConstraint=eastwest;rounded=0;shadow=0;glass=0;dashed=1;sketch=1;fontSize=20;" parent="113" vertex="1">
                    <mxGeometry y="202" width="200" height="28" as="geometry"/>
                </mxCell>
                <mxCell id="212" value="Hidden" style="shape=partialRectangle;html=1;whiteSpace=wrap;connectable=0;top=0;left=0;bottom=0;right=0;overflow=hidden;pointerEvents=1;rounded=0;shadow=0;glass=0;dashed=1;sketch=0;fontSize=12;align=left;" parent="211" vertex="1">
                    <mxGeometry width="130" height="28" as="geometry">
                        <mxRectangle width="130" height="28" as="alternateBounds"/>
                    </mxGeometry>
                </mxCell>
                <mxCell id="213" value="Boolean" style="shape=partialRectangle;html=1;whiteSpace=wrap;connectable=0;top=0;left=0;bottom=0;right=0;overflow=hidden;pointerEvents=1;rounded=0;shadow=0;glass=0;dashed=1;sketch=0;fontSize=12;align=left;" parent="211" vertex="1">
                    <mxGeometry x="130" width="70" height="28" as="geometry">
                        <mxRectangle width="70" height="28" as="alternateBounds"/>
                    </mxGeometry>
                </mxCell>
                <mxCell id="135" value="" style="endArrow=classic;html=1;fontSize=12;fontColor=#FFFFFF;exitX=1;exitY=0.5;exitDx=0;exitDy=0;entryX=0;entryY=0.5;entryDx=0;entryDy=0;" parent="1" source="55" target="120" edge="1">
                    <mxGeometry width="50" height="50" relative="1" as="geometry">
                        <mxPoint x="370" y="320" as="sourcePoint"/>
                        <mxPoint x="420" y="270" as="targetPoint"/>
                    </mxGeometry>
                </mxCell>
                <mxCell id="136" value="Answers (sub doc)" style="swimlane;fontStyle=0;childLayout=stackLayout;horizontal=1;startSize=30;horizontalStack=0;resizeParent=1;resizeParentMax=0;resizeLast=0;collapsible=1;marginBottom=0;" parent="1" vertex="1">
                    <mxGeometry x="560" y="80" width="200" height="256" as="geometry">
                        <mxRectangle y="80" width="60" height="30" as="alternateBounds"/>
                    </mxGeometry>
                </mxCell>
                <mxCell id="137" value="" style="shape=table;html=1;whiteSpace=wrap;startSize=0;container=1;collapsible=0;childLayout=tableLayout;rounded=0;shadow=0;glass=0;dashed=1;sketch=1;fontSize=20;align=left;" parent="136" vertex="1">
                    <mxGeometry y="30" width="200" height="226" as="geometry"/>
                </mxCell>
                <mxCell id="138" value="" style="shape=partialRectangle;html=1;whiteSpace=wrap;collapsible=0;dropTarget=0;pointerEvents=0;fillColor=none;top=0;left=0;bottom=0;right=0;points=[[0,0.5],[1,0.5]];portConstraint=eastwest;rounded=0;shadow=0;glass=0;dashed=1;sketch=1;fontSize=20;" parent="137" vertex="1">
                    <mxGeometry width="200" height="30" as="geometry"/>
                </mxCell>
                <mxCell id="139" value="_id" style="shape=partialRectangle;html=1;whiteSpace=wrap;connectable=0;fillColor=#a20025;top=0;left=0;bottom=0;right=0;overflow=hidden;pointerEvents=1;rounded=0;shadow=0;glass=0;dashed=1;sketch=1;fontSize=12;align=left;fontColor=#ffffff;strokeColor=#6F0000;" parent="138" vertex="1">
                    <mxGeometry width="130" height="30" as="geometry">
                        <mxRectangle width="130" height="30" as="alternateBounds"/>
                    </mxGeometry>
                </mxCell>
                <mxCell id="140" value="String" style="shape=partialRectangle;html=1;whiteSpace=wrap;connectable=0;fillColor=#a20025;top=0;left=0;bottom=0;right=0;overflow=hidden;pointerEvents=1;rounded=0;shadow=0;glass=0;dashed=1;sketch=1;fontSize=12;align=left;fontColor=#ffffff;strokeColor=#6F0000;" parent="138" vertex="1">
                    <mxGeometry x="130" width="70" height="30" as="geometry">
                        <mxRectangle width="70" height="30" as="alternateBounds"/>
                    </mxGeometry>
                </mxCell>
                <mxCell id="144" value="" style="shape=partialRectangle;html=1;whiteSpace=wrap;collapsible=0;dropTarget=0;pointerEvents=0;fillColor=none;top=0;left=0;bottom=0;right=0;points=[[0,0.5],[1,0.5]];portConstraint=eastwest;rounded=0;shadow=0;glass=0;dashed=1;sketch=1;fontSize=20;" parent="137" vertex="1">
                    <mxGeometry y="30" width="200" height="28" as="geometry"/>
                </mxCell>
                <mxCell id="145" value="Owner" style="shape=partialRectangle;html=1;whiteSpace=wrap;connectable=0;fillColor=none;top=0;left=0;bottom=0;right=0;overflow=hidden;pointerEvents=1;rounded=0;shadow=0;glass=0;dashed=1;sketch=1;fontSize=12;align=left;" parent="144" vertex="1">
                    <mxGeometry width="130" height="28" as="geometry">
                        <mxRectangle width="130" height="28" as="alternateBounds"/>
                    </mxGeometry>
                </mxCell>
                <mxCell id="146" value="String" style="shape=partialRectangle;html=1;whiteSpace=wrap;connectable=0;fillColor=none;top=0;left=0;bottom=0;right=0;overflow=hidden;pointerEvents=1;rounded=0;shadow=0;glass=0;dashed=1;sketch=1;fontSize=12;align=left;" parent="144" vertex="1">
                    <mxGeometry x="130" width="70" height="28" as="geometry">
                        <mxRectangle width="70" height="28" as="alternateBounds"/>
                    </mxGeometry>
                </mxCell>
                <mxCell id="147" style="shape=partialRectangle;html=1;whiteSpace=wrap;collapsible=0;dropTarget=0;pointerEvents=0;fillColor=none;top=0;left=0;bottom=0;right=0;points=[[0,0.5],[1,0.5]];portConstraint=eastwest;rounded=0;shadow=0;glass=0;dashed=1;sketch=1;fontSize=20;" parent="137" vertex="1">
                    <mxGeometry y="58" width="200" height="28" as="geometry"/>
                </mxCell>
                <mxCell id="148" value="Answer Text" style="shape=partialRectangle;html=1;whiteSpace=wrap;connectable=0;fillColor=none;top=0;left=0;bottom=0;right=0;overflow=hidden;pointerEvents=1;rounded=0;shadow=0;glass=0;dashed=1;sketch=1;fontSize=12;align=left;" parent="147" vertex="1">
                    <mxGeometry width="130" height="28" as="geometry">
                        <mxRectangle width="130" height="28" as="alternateBounds"/>
                    </mxGeometry>
                </mxCell>
                <mxCell id="149" value="String" style="shape=partialRectangle;html=1;whiteSpace=wrap;connectable=0;fillColor=none;top=0;left=0;bottom=0;right=0;overflow=hidden;pointerEvents=1;rounded=0;shadow=0;glass=0;dashed=1;sketch=1;fontSize=12;align=left;" parent="147" vertex="1">
                    <mxGeometry x="130" width="70" height="28" as="geometry">
                        <mxRectangle width="70" height="28" as="alternateBounds"/>
                    </mxGeometry>
                </mxCell>
                <mxCell id="155" style="shape=partialRectangle;html=1;whiteSpace=wrap;collapsible=0;dropTarget=0;pointerEvents=0;fillColor=none;top=0;left=0;bottom=0;right=0;points=[[0,0.5],[1,0.5]];portConstraint=eastwest;rounded=0;shadow=0;glass=0;dashed=1;sketch=1;fontSize=20;" parent="137" vertex="1">
                    <mxGeometry y="86" width="200" height="28" as="geometry"/>
                </mxCell>
                <mxCell id="156" value="Votes" style="shape=partialRectangle;html=1;whiteSpace=wrap;connectable=0;fillColor=none;top=0;left=0;bottom=0;right=0;overflow=hidden;pointerEvents=1;rounded=0;shadow=0;glass=0;dashed=1;sketch=1;fontSize=12;align=left;" parent="155" vertex="1">
                    <mxGeometry width="130" height="28" as="geometry">
                        <mxRectangle width="130" height="28" as="alternateBounds"/>
                    </mxGeometry>
                </mxCell>
                <mxCell id="157" value="Array" style="shape=partialRectangle;html=1;whiteSpace=wrap;connectable=0;fillColor=none;top=0;left=0;bottom=0;right=0;overflow=hidden;pointerEvents=1;rounded=0;shadow=0;glass=0;dashed=1;sketch=1;fontSize=12;align=left;" parent="155" vertex="1">
                    <mxGeometry x="130" width="70" height="28" as="geometry">
                        <mxRectangle width="70" height="28" as="alternateBounds"/>
                    </mxGeometry>
                </mxCell>
                <mxCell id="173" style="shape=partialRectangle;html=1;whiteSpace=wrap;collapsible=0;dropTarget=0;pointerEvents=0;fillColor=none;top=0;left=0;bottom=0;right=0;points=[[0,0.5],[1,0.5]];portConstraint=eastwest;rounded=0;shadow=0;glass=0;dashed=1;sketch=1;fontSize=20;" parent="137" vertex="1">
                    <mxGeometry y="114" width="200" height="28" as="geometry"/>
                </mxCell>
                <mxCell id="174" value="Vote Count" style="shape=partialRectangle;html=1;whiteSpace=wrap;connectable=0;fillColor=#60a917;top=0;left=0;bottom=0;right=0;overflow=hidden;pointerEvents=1;rounded=0;shadow=0;glass=0;dashed=1;sketch=1;fontSize=12;align=left;fontColor=#ffffff;strokeColor=#2D7600;" parent="173" vertex="1">
                    <mxGeometry width="130" height="28" as="geometry">
                        <mxRectangle width="130" height="28" as="alternateBounds"/>
                    </mxGeometry>
                </mxCell>
                <mxCell id="175" value="Number" style="shape=partialRectangle;html=1;whiteSpace=wrap;connectable=0;fillColor=#60a917;top=0;left=0;bottom=0;right=0;overflow=hidden;pointerEvents=1;rounded=0;shadow=0;glass=0;dashed=1;sketch=1;fontSize=12;align=left;fontColor=#ffffff;strokeColor=#2D7600;" parent="173" vertex="1">
                    <mxGeometry x="130" width="70" height="28" as="geometry">
                        <mxRectangle width="70" height="28" as="alternateBounds"/>
                    </mxGeometry>
                </mxCell>
                <mxCell id="187" style="shape=partialRectangle;html=1;whiteSpace=wrap;collapsible=0;dropTarget=0;pointerEvents=0;fillColor=none;top=0;left=0;bottom=0;right=0;points=[[0,0.5],[1,0.5]];portConstraint=eastwest;rounded=0;shadow=0;glass=0;dashed=1;sketch=1;fontSize=20;" parent="137" vertex="1">
                    <mxGeometry y="142" width="200" height="28" as="geometry"/>
                </mxCell>
                <mxCell id="188" value="CreatedAt" style="shape=partialRectangle;html=1;whiteSpace=wrap;connectable=0;fillColor=#1ba1e2;top=0;left=0;bottom=0;right=0;overflow=hidden;pointerEvents=1;rounded=0;shadow=0;glass=0;dashed=1;sketch=1;fontSize=12;align=left;fontColor=#ffffff;strokeColor=#006EAF;" parent="187" vertex="1">
                    <mxGeometry width="130" height="28" as="geometry">
                        <mxRectangle width="130" height="28" as="alternateBounds"/>
                    </mxGeometry>
                </mxCell>
                <mxCell id="189" value="Date" style="shape=partialRectangle;html=1;whiteSpace=wrap;connectable=0;fillColor=#1ba1e2;top=0;left=0;bottom=0;right=0;overflow=hidden;pointerEvents=1;rounded=0;shadow=0;glass=0;dashed=1;sketch=1;fontSize=12;align=left;fontColor=#ffffff;strokeColor=#006EAF;" parent="187" vertex="1">
                    <mxGeometry x="130" width="70" height="28" as="geometry">
                        <mxRectangle width="70" height="28" as="alternateBounds"/>
                    </mxGeometry>
                </mxCell>
                <mxCell id="184" style="shape=partialRectangle;html=1;whiteSpace=wrap;collapsible=0;dropTarget=0;pointerEvents=0;fillColor=none;top=0;left=0;bottom=0;right=0;points=[[0,0.5],[1,0.5]];portConstraint=eastwest;rounded=0;shadow=0;glass=0;dashed=1;sketch=1;fontSize=20;" parent="137" vertex="1">
                    <mxGeometry y="170" width="200" height="28" as="geometry"/>
                </mxCell>
                <mxCell id="185" value="UpdatedAt" style="shape=partialRectangle;html=1;whiteSpace=wrap;connectable=0;fillColor=#1ba1e2;top=0;left=0;bottom=0;right=0;overflow=hidden;pointerEvents=1;rounded=0;shadow=0;glass=0;dashed=1;sketch=1;fontSize=12;align=left;fontColor=#ffffff;strokeColor=#006EAF;" parent="184" vertex="1">
                    <mxGeometry width="130" height="28" as="geometry">
                        <mxRectangle width="130" height="28" as="alternateBounds"/>
                    </mxGeometry>
                </mxCell>
                <mxCell id="186" value="Date" style="shape=partialRectangle;html=1;whiteSpace=wrap;connectable=0;fillColor=#1ba1e2;top=0;left=0;bottom=0;right=0;overflow=hidden;pointerEvents=1;rounded=0;shadow=0;glass=0;dashed=1;sketch=1;fontSize=12;align=left;fontColor=#ffffff;strokeColor=#006EAF;" parent="184" vertex="1">
                    <mxGeometry x="130" width="70" height="28" as="geometry">
                        <mxRectangle width="70" height="28" as="alternateBounds"/>
                    </mxGeometry>
                </mxCell>
                <mxCell id="214" style="shape=partialRectangle;html=1;whiteSpace=wrap;collapsible=0;dropTarget=0;pointerEvents=0;fillColor=none;top=0;left=0;bottom=0;right=0;points=[[0,0.5],[1,0.5]];portConstraint=eastwest;rounded=0;shadow=0;glass=0;dashed=1;sketch=1;fontSize=20;" parent="137" vertex="1">
                    <mxGeometry y="198" width="200" height="28" as="geometry"/>
                </mxCell>
                <mxCell id="215" value="Hidden" style="shape=partialRectangle;html=1;whiteSpace=wrap;connectable=0;top=0;left=0;bottom=0;right=0;overflow=hidden;pointerEvents=1;rounded=0;shadow=0;glass=0;dashed=1;sketch=0;fontSize=12;align=left;" parent="214" vertex="1">
                    <mxGeometry width="130" height="28" as="geometry">
                        <mxRectangle width="130" height="28" as="alternateBounds"/>
                    </mxGeometry>
                </mxCell>
                <mxCell id="216" value="Boolean" style="shape=partialRectangle;html=1;whiteSpace=wrap;connectable=0;top=0;left=0;bottom=0;right=0;overflow=hidden;pointerEvents=1;rounded=0;shadow=0;glass=0;dashed=1;sketch=0;fontSize=12;align=left;" parent="214" vertex="1">
                    <mxGeometry x="130" width="70" height="28" as="geometry">
                        <mxRectangle width="70" height="28" as="alternateBounds"/>
                    </mxGeometry>
                </mxCell>
                <mxCell id="150" value="" style="curved=1;endArrow=classic;html=1;fontSize=12;fontColor=#FFFFFF;exitX=1;exitY=0.5;exitDx=0;exitDy=0;entryX=0;entryY=0.5;entryDx=0;entryDy=0;" parent="1" source="55" target="144" edge="1">
                    <mxGeometry width="50" height="50" relative="1" as="geometry">
                        <mxPoint x="370" y="320" as="sourcePoint"/>
                        <mxPoint x="420" y="270" as="targetPoint"/>
                        <Array as="points">
                            <mxPoint x="420" y="-60"/>
                        </Array>
                    </mxGeometry>
                </mxCell>
                <mxCell id="158" value="Votes (sub doc)" style="swimlane;fontStyle=0;childLayout=stackLayout;horizontal=1;startSize=30;horizontalStack=0;resizeParent=1;resizeParentMax=0;resizeLast=0;collapsible=1;marginBottom=0;" parent="1" vertex="1">
                    <mxGeometry x="840" y="80" width="200" height="175.08592224121094" as="geometry">
                        <mxRectangle y="80" width="60" height="30" as="alternateBounds"/>
                    </mxGeometry>
                </mxCell>
                <mxCell id="159" value="" style="shape=table;html=1;whiteSpace=wrap;startSize=0;container=1;collapsible=0;childLayout=tableLayout;rounded=0;shadow=0;glass=0;dashed=1;sketch=1;fontSize=20;align=left;" parent="158" vertex="1">
                    <mxGeometry y="30" width="200" height="145.08592224121094" as="geometry"/>
                </mxCell>
                <mxCell id="160" value="" style="shape=partialRectangle;html=1;whiteSpace=wrap;collapsible=0;dropTarget=0;pointerEvents=0;fillColor=none;top=0;left=0;bottom=0;right=0;points=[[0,0.5],[1,0.5]];portConstraint=eastwest;rounded=0;shadow=0;glass=0;dashed=1;sketch=1;fontSize=20;" parent="159" vertex="1">
                    <mxGeometry width="200" height="30" as="geometry"/>
                </mxCell>
                <mxCell id="161" value="_id" style="shape=partialRectangle;html=1;whiteSpace=wrap;connectable=0;fillColor=#a20025;top=0;left=0;bottom=0;right=0;overflow=hidden;pointerEvents=1;rounded=0;shadow=0;glass=0;dashed=1;sketch=1;fontSize=12;align=left;fontColor=#ffffff;strokeColor=#6F0000;" parent="160" vertex="1">
                    <mxGeometry width="130" height="30" as="geometry">
                        <mxRectangle width="130" height="30" as="alternateBounds"/>
                    </mxGeometry>
                </mxCell>
                <mxCell id="162" value="String" style="shape=partialRectangle;html=1;whiteSpace=wrap;connectable=0;fillColor=#a20025;top=0;left=0;bottom=0;right=0;overflow=hidden;pointerEvents=1;rounded=0;shadow=0;glass=0;dashed=1;sketch=1;fontSize=12;align=left;fontColor=#ffffff;strokeColor=#6F0000;" parent="160" vertex="1">
                    <mxGeometry x="130" width="70" height="30" as="geometry">
                        <mxRectangle width="70" height="30" as="alternateBounds"/>
                    </mxGeometry>
                </mxCell>
                <mxCell id="163" value="" style="shape=partialRectangle;html=1;whiteSpace=wrap;collapsible=0;dropTarget=0;pointerEvents=0;fillColor=none;top=0;left=0;bottom=0;right=0;points=[[0,0.5],[1,0.5]];portConstraint=eastwest;rounded=0;shadow=0;glass=0;dashed=1;sketch=1;fontSize=20;" parent="159" vertex="1">
                    <mxGeometry y="30" width="200" height="28" as="geometry"/>
                </mxCell>
                <mxCell id="164" value="Owner" style="shape=partialRectangle;html=1;whiteSpace=wrap;connectable=0;fillColor=none;top=0;left=0;bottom=0;right=0;overflow=hidden;pointerEvents=1;rounded=0;shadow=0;glass=0;dashed=1;sketch=1;fontSize=12;align=left;" parent="163" vertex="1">
                    <mxGeometry width="130" height="28" as="geometry">
                        <mxRectangle width="130" height="28" as="alternateBounds"/>
                    </mxGeometry>
                </mxCell>
                <mxCell id="165" value="String" style="shape=partialRectangle;html=1;whiteSpace=wrap;connectable=0;fillColor=none;top=0;left=0;bottom=0;right=0;overflow=hidden;pointerEvents=1;rounded=0;shadow=0;glass=0;dashed=1;sketch=1;fontSize=12;align=left;" parent="163" vertex="1">
                    <mxGeometry x="130" width="70" height="28" as="geometry">
                        <mxRectangle width="70" height="28" as="alternateBounds"/>
                    </mxGeometry>
                </mxCell>
                <mxCell id="166" style="shape=partialRectangle;html=1;whiteSpace=wrap;collapsible=0;dropTarget=0;pointerEvents=0;fillColor=none;top=0;left=0;bottom=0;right=0;points=[[0,0.5],[1,0.5]];portConstraint=eastwest;rounded=0;shadow=0;glass=0;dashed=1;sketch=1;fontSize=20;" parent="159" vertex="1">
                    <mxGeometry y="58" width="200" height="28" as="geometry"/>
                </mxCell>
                <mxCell id="167" value="IP" style="shape=partialRectangle;html=1;whiteSpace=wrap;connectable=0;fillColor=none;top=0;left=0;bottom=0;right=0;overflow=hidden;pointerEvents=1;rounded=0;shadow=0;glass=0;dashed=1;sketch=1;fontSize=12;align=left;" parent="166" vertex="1">
                    <mxGeometry width="130" height="28" as="geometry">
                        <mxRectangle width="130" height="28" as="alternateBounds"/>
                    </mxGeometry>
                </mxCell>
                <mxCell id="168" value="String" style="shape=partialRectangle;html=1;whiteSpace=wrap;connectable=0;fillColor=none;top=0;left=0;bottom=0;right=0;overflow=hidden;pointerEvents=1;rounded=0;shadow=0;glass=0;dashed=1;sketch=1;fontSize=12;align=left;" parent="166" vertex="1">
                    <mxGeometry x="130" width="70" height="28" as="geometry">
                        <mxRectangle width="70" height="28" as="alternateBounds"/>
                    </mxGeometry>
                </mxCell>
                <mxCell id="196" style="shape=partialRectangle;html=1;whiteSpace=wrap;collapsible=0;dropTarget=0;pointerEvents=0;fillColor=none;top=0;left=0;bottom=0;right=0;points=[[0,0.5],[1,0.5]];portConstraint=eastwest;rounded=0;shadow=0;glass=0;dashed=1;sketch=1;fontSize=20;" parent="159" vertex="1">
                    <mxGeometry y="86" width="200" height="28" as="geometry"/>
                </mxCell>
                <mxCell id="197" value="CreatedAt" style="shape=partialRectangle;html=1;whiteSpace=wrap;connectable=0;fillColor=#1ba1e2;top=0;left=0;bottom=0;right=0;overflow=hidden;pointerEvents=1;rounded=0;shadow=0;glass=0;dashed=1;sketch=1;fontSize=12;align=left;fontColor=#ffffff;strokeColor=#006EAF;" parent="196" vertex="1">
                    <mxGeometry width="130" height="28" as="geometry">
                        <mxRectangle width="130" height="28" as="alternateBounds"/>
                    </mxGeometry>
                </mxCell>
                <mxCell id="198" value="Date" style="shape=partialRectangle;html=1;whiteSpace=wrap;connectable=0;fillColor=#1ba1e2;top=0;left=0;bottom=0;right=0;overflow=hidden;pointerEvents=1;rounded=0;shadow=0;glass=0;dashed=1;sketch=1;fontSize=12;align=left;fontColor=#ffffff;strokeColor=#006EAF;" parent="196" vertex="1">
                    <mxGeometry x="130" width="70" height="28" as="geometry">
                        <mxRectangle width="70" height="28" as="alternateBounds"/>
                    </mxGeometry>
                </mxCell>
                <mxCell id="193" style="shape=partialRectangle;html=1;whiteSpace=wrap;collapsible=0;dropTarget=0;pointerEvents=0;fillColor=none;top=0;left=0;bottom=0;right=0;points=[[0,0.5],[1,0.5]];portConstraint=eastwest;rounded=0;shadow=0;glass=0;dashed=1;sketch=1;fontSize=20;" parent="159" vertex="1">
                    <mxGeometry y="114" width="200" height="31" as="geometry"/>
                </mxCell>
                <mxCell id="194" value="UpdatedAt" style="shape=partialRectangle;html=1;whiteSpace=wrap;connectable=0;fillColor=#1ba1e2;top=0;left=0;bottom=0;right=0;overflow=hidden;pointerEvents=1;rounded=0;shadow=0;glass=0;dashed=1;sketch=1;fontSize=12;align=left;fontColor=#ffffff;strokeColor=#006EAF;" parent="193" vertex="1">
                    <mxGeometry width="130" height="31" as="geometry">
                        <mxRectangle width="130" height="31" as="alternateBounds"/>
                    </mxGeometry>
                </mxCell>
                <mxCell id="195" value="Date" style="shape=partialRectangle;html=1;whiteSpace=wrap;connectable=0;fillColor=#1ba1e2;top=0;left=0;bottom=0;right=0;overflow=hidden;pointerEvents=1;rounded=0;shadow=0;glass=0;dashed=1;sketch=1;fontSize=12;align=left;fontColor=#ffffff;strokeColor=#006EAF;" parent="193" vertex="1">
                    <mxGeometry x="130" width="70" height="31" as="geometry">
                        <mxRectangle width="70" height="31" as="alternateBounds"/>
                    </mxGeometry>
                </mxCell>
                <mxCell id="172" value="" style="curved=1;endArrow=classic;html=1;fontSize=12;fontColor=#FFFFFF;exitX=1;exitY=0.5;exitDx=0;exitDy=0;entryX=0;entryY=0.5;entryDx=0;entryDy=0;" parent="1" source="55" target="163" edge="1">
                    <mxGeometry width="50" height="50" relative="1" as="geometry">
                        <mxPoint x="370" y="270" as="sourcePoint"/>
                        <mxPoint x="420" y="220" as="targetPoint"/>
                        <Array as="points">
                            <mxPoint x="260" y="30"/>
                            <mxPoint x="760" y="20"/>
                        </Array>
                    </mxGeometry>
                </mxCell>
                <mxCell id="183" value="" style="curved=1;endArrow=classic;html=1;fontSize=12;fontColor=#FFFFFF;exitX=1;exitY=0.5;exitDx=0;exitDy=0;entryX=0.5;entryY=0;entryDx=0;entryDy=0;" parent="1" source="123" target="136" edge="1">
                    <mxGeometry width="50" height="50" relative="1" as="geometry">
                        <mxPoint x="370" y="310" as="sourcePoint"/>
                        <mxPoint x="420" y="260" as="targetPoint"/>
                        <Array as="points">
                            <mxPoint x="520" y="310"/>
                            <mxPoint x="520" y="20"/>
                        </Array>
                    </mxGeometry>
                </mxCell>
                <mxCell id="192" value="" style="curved=1;endArrow=classic;html=1;fontSize=12;fontColor=#FFFFFF;entryX=0.5;entryY=0;entryDx=0;entryDy=0;exitX=1;exitY=0.5;exitDx=0;exitDy=0;" parent="1" source="155" target="158" edge="1">
                    <mxGeometry width="50" height="50" relative="1" as="geometry">
                        <mxPoint x="682" y="245" as="sourcePoint"/>
                        <mxPoint x="732" y="195" as="targetPoint"/>
                        <Array as="points">
                            <mxPoint x="803" y="245"/>
                            <mxPoint x="818" y="-1"/>
                        </Array>
                    </mxGeometry>
                </mxCell>
            </root>
        </mxGraphModel>
    </diagram>
</mxfile>